<?xml version="1.0" encoding="UTF-8"?><svg id="Layer_1" xmlns="http://www.w3.org/2000/svg" width="357" height="29.1" viewBox="0 0 357 29.1"><polyline points="64.7 10.6 69.6 .5 76.1 .6 67.9 17 73.7 28.6 67.3 28.6 67.3 28.6 53.3 .5 53.3 .5 59 .5 59.8 .5 73.7 28.6" fill="#fff"/><path d="M101.9,17.9c0,5.9-4.9,10.7-10.8,10.7s-10.8-4.8-10.8-10.6V.5h5.6v17.4c0,1.4.6,2.7,1.6,3.7s2.3,1.5,3.7,1.5,2.7-.5,3.7-1.5,1.5-2.2,1.5-3.6h0V.5h5.6v17.4h-.1Z" fill="#fff"/><polygon points="45.9 13.4 50.2 21.7 41.8 21.7 45.9 13.4 45.9 .5 32 28.6 59.8 28.6 45.9 .5 45.9 13.4" fill="#fff"/><path d="M0,.5l13.9,28.1,5.4-11,5.2,11L38.5.6H0v-.1ZM14.1,15.1l-4-7.6h4l1.8,3.8-1.9,3.8h.1ZM24.5,15.1l-4-7.6h-.4,8.1l-3.8,7.6h.1Z" fill="#fff"/><path d="M107.7.5h11.1c6.6,0,10.7,3.7,10.7,9.4h0c0,6.3-5,9.7-11.2,9.7h-5.6v9h-4.9V.5h-.1ZM118.4,15.1c3.7,0,6.1-2.1,6.1-5h0c0-3.4-2.4-5.1-6.1-5.1h-5.7v10.1h5.7Z" fill="#eaeaea"/><path d="M134.1,16.6V.5h4.9v16c0,5.2,2.6,8,7.1,8s7.1-2.6,7.1-7.8V.5h4.9v15.9c0,8.4-4.7,12.6-12.1,12.6s-11.9-4.2-11.9-12.4h0Z" fill="#eaeaea"/><path d="M164.9.5h12.6c3.2,0,5.7.8,7.3,2.5,1.2,1.2,1.9,2.8,1.9,4.6h0c0,3.5-1.9,5.2-4,6.3,3.3,1.2,5.6,3,5.6,6.8h0c0,5.1-4.1,7.8-10.4,7.8h-13V.5h0ZM181.8,8.4c0-2.2-1.7-3.6-4.9-3.6h-7.1v7.5h6.7c3.2,0,5.3-1.2,5.3-3.8h0v-.1ZM183.3,20.3c0-2.4-1.9-3.8-5.8-3.8h-7.8v7.7h8.2c3.4,0,5.4-1.3,5.4-3.9h0Z" fill="#eaeaea"/><path d="M193.8.5h4.9v23.6h14.8v4.5h-19.7V.5h0Z" fill="#eaeaea"/><path d="M218.9.5h4.9v28.1h-4.9V.5Z" fill="#eaeaea"/><path d="M229.5,24.5l3-3.5c2.7,2.4,5.4,3.6,8.9,3.6s5-1.4,5-3.5h0c0-2-1.1-3.2-6.3-4.4-6-1.4-9.4-3.2-9.4-8.4h0c0-4.9,4-8.2,9.6-8.2s7.3,1.2,10.2,3.5l-2.6,3.7c-2.6-1.9-5.1-2.9-7.6-2.9s-4.6,1.4-4.6,3.3h0c0,2.2,1.3,3.2,6.7,4.5,5.9,1.5,9,3.5,9,8.2h0c0,5.4-4.1,8.5-10,8.5s-8.3-1.4-11.7-4.5h0l-.2.1Z" fill="#eaeaea"/><path d="M257,.5h4.9v11.7h13.4V.5h4.9v28.1h-4.9v-11.8h-13.4v11.8h-4.9V.5Z" fill="#eaeaea"/><path d="M287.8.5h4.9v28.1h-4.9V.5Z" fill="#eaeaea"/><path d="M300.2.5h4.6l15,19.4V.5h4.9v28.1h-4.1l-15.5-20v20h-4.9V.5h0Z" fill="#eaeaea"/><path d="M330.7,14.6h0c0-7.9,6-14.6,14.5-14.6s7.9,1.4,10.8,3.8l-3.1,3.7c-2.2-1.8-4.3-3-7.9-3-5.1,0-9.1,4.5-9.1,9.9h0c0,5.9,3.8,10.1,9.5,10.1s5-.8,6.8-2.1v-5.2h-7.2v-4.3h12v11.8c-2.8,2.4-6.7,4.4-11.7,4.4-8.8,0-14.6-6.3-14.6-14.4h0v-.1Z" fill="#eaeaea"/></svg>