<?xml version="1.0" encoding="UTF-8"?><svg id="Layer_1" xmlns="http://www.w3.org/2000/svg" width="1468.63" height="752.13" xmlns:xlink="http://www.w3.org/1999/xlink" viewBox="0 0 1468.63 752.13"><defs><linearGradient id="linear-gradient" x1="1442.05" y1="725.54" x2="867.44" y2="150.94" gradientUnits="userSpaceOnUse"><stop offset="0" stop-color="#55a5bb"/><stop offset="1" stop-color="#bee2b9"/></linearGradient><linearGradient id="linear-gradient-2" x1="601.25" y1="150.88" x2="26.53" y2="725.6" gradientUnits="userSpaceOnUse"><stop offset="0" stop-color="#ff7e77"/><stop offset="1" stop-color="#bee2b9"/></linearGradient></defs><rect x="840.85" y="124.35" width="627.78" height="627.78" rx="90.77" ry="90.77" fill="url(#linear-gradient)"/><rect y="124.35" width="627.78" height="627.78" rx="90.58" ry="90.58" fill="url(#linear-gradient-2)"/><path d="M461.69,180.28l-205.74,55.32v218.37c-11.21-10.19-28.95-16.77-48.92-16.77-33.9,0-61.37,18.96-61.37,42.36s27.48,42.36,61.37,42.36,60.67-18.49,61.36-41.47l.52.66.86-183.26,176.35-46.68,2.42,166.15c-11.24-9.84-28.67-16.16-48.23-16.16-33.9,0-61.37,18.96-61.37,42.36s27.48,42.36,61.37,42.36,61.38-18.96,61.38-42.36c0-.45-.01-.9-.03-1.34l.03.03V180.28Z" fill="#1e1e1e"/><path d="M1311.6,393.88l-50.9,36.67,1.76,2.65c.67,1,.39,2.35-.61,3.02l-37.64,25c-1,.67-2.35.39-3.02-.61l-9.63-14.5c-.66-1-.39-2.35.61-3.01l37.64-25c1-.67,2.35-.39,3.02.61l1.45,2.18,49.27-35.49,23.14-52.09c-8.83-85.83-81.57-153-169.69-153-94.07,0-170.6,76.53-170.6,170.59s76.53,170.6,170.6,170.6,165.34-71.39,170.32-161.02l-13.8,31.07c-.42.94-1.08,1.75-1.91,2.35ZM1156.99,408.07c-31.54,0-57.19-25.66-57.19-57.19s25.66-57.19,57.19-57.19,57.19,25.66,57.19,57.19-25.66,57.19-57.19,57.19Z" fill="#1e1e1e"/><path d="M1156.99,521.91c45.68,0,88.64-17.79,120.94-50.1,30.31-30.31,47.84-69.99,49.89-112.52l-.51,1.15c-4.98,89.63-79.47,161.02-170.32,161.02s-170.6-76.53-170.6-170.6,76.53-170.59,170.6-170.59c88.13,0,160.86,67.17,169.69,153l.36-.81c-4.12-38.73-21.19-74.61-49.11-102.54-32.3-32.3-75.26-50.09-120.94-50.09s-88.64,17.79-120.94,50.09c-32.31,32.3-50.1,75.26-50.1,120.94s17.79,88.64,50.1,120.94c32.3,32.3,75.25,50.1,120.94,50.1Z" fill="#1e1e1e"/><path d="M1156.99,293.68c-31.54,0-57.19,25.66-57.19,57.19s25.66,57.19,57.19,57.19,57.19-25.66,57.19-57.19-25.66-57.19-57.19-57.19ZM1156.99,407.74c-31.35,0-56.86-25.51-56.86-56.86s25.51-56.86,56.86-56.86,56.86,25.51,56.86,56.86-25.51,56.86-56.86,56.86Z" fill="#1e1e1e"/><path d="M1156.99,338.44c-6.86,0-12.44,5.58-12.44,12.44s5.58,12.44,12.44,12.44,12.44-5.58,12.44-12.44-5.58-12.44-12.44-12.44Z" fill="#1e1e1e"/><path d="M1156.99,338.26c-6.95,0-12.61,5.66-12.61,12.61s5.66,12.61,12.61,12.61,12.61-5.66,12.61-12.61-5.66-12.61-12.61-12.61ZM1156.99,363.32c-6.86,0-12.44-5.58-12.44-12.44s5.58-12.44,12.44-12.44,12.44,5.58,12.44,12.44-5.58,12.44-12.44,12.44Z" fill="#1e1e1e"/><path d="M922.33,49.29V7.78h15.57c3.19,0,5.87.55,8.04,1.66,2.17,1.11,3.81,2.66,4.92,4.65s1.67,4.31,1.67,6.96-.56,4.97-1.69,6.92-2.79,3.46-4.98,4.52c-2.19,1.06-4.88,1.59-8.07,1.59h-11.09v-6.24h10.07c1.86,0,3.39-.26,4.58-.78,1.19-.52,2.07-1.28,2.65-2.29.57-1.01.86-2.25.86-3.72s-.29-2.73-.87-3.78c-.58-1.05-1.47-1.84-2.66-2.39-1.19-.55-2.72-.82-4.6-.82h-6.89v35.23h-7.52ZM943.77,30.48l10.28,18.81h-8.39l-10.09-18.81h8.21Z" fill="#5b5c5b"/><path d="M959.46,49.29V7.78h27v6.3h-19.48v11.27h18.08v6.3h-18.08v11.33h19.64v6.3h-27.16Z" fill="#5b5c5b"/><path d="M1029.67,21.79h-7.58c-.22-1.24-.61-2.35-1.2-3.31-.58-.97-1.3-1.79-2.17-2.46-.86-.68-1.85-1.19-2.95-1.53-1.1-.34-2.29-.52-3.56-.52-2.26,0-4.26.56-6,1.69-1.74,1.13-3.11,2.78-4.09,4.95-.99,2.17-1.48,4.81-1.48,7.94s.5,5.85,1.49,8.02c.99,2.17,2.36,3.8,4.09,4.91,1.74,1.1,3.73,1.65,5.97,1.65,1.24,0,2.41-.17,3.5-.5s2.07-.82,2.94-1.47c.87-.65,1.61-1.45,2.21-2.39s1.02-2.03,1.25-3.24l7.58.04c-.28,1.97-.9,3.82-1.83,5.55-.94,1.73-2.17,3.25-3.68,4.57-1.51,1.32-3.28,2.34-5.31,3.08-2.03.74-4.28,1.1-6.75,1.1-3.65,0-6.9-.84-9.77-2.53-2.87-1.69-5.12-4.13-6.77-7.32-1.65-3.19-2.47-7.01-2.47-11.47s.83-8.3,2.49-11.48,3.93-5.62,6.79-7.31c2.86-1.69,6.11-2.53,9.73-2.53,2.31,0,4.46.32,6.45.97,1.99.65,3.76,1.6,5.31,2.85,1.55,1.25,2.83,2.78,3.84,4.58s1.67,3.86,1.98,6.17Z" fill="#5b5c5b"/><path d="M1073.67,28.54c0,4.47-.83,8.3-2.5,11.48-1.67,3.18-3.94,5.62-6.81,7.31s-6.12,2.53-9.76,2.53-6.89-.85-9.76-2.54-5.14-4.13-6.81-7.32c-1.67-3.18-2.5-7-2.5-11.46s.83-8.3,2.5-11.48c1.67-3.18,3.94-5.62,6.81-7.31,2.87-1.69,6.12-2.53,9.76-2.53s6.89.84,9.76,2.53c2.87,1.69,5.14,4.12,6.81,7.31,1.67,3.18,2.5,7.01,2.5,11.48ZM1066.11,28.54c0-3.15-.49-5.81-1.47-7.98-.98-2.17-2.33-3.81-4.06-4.92-1.73-1.12-3.72-1.67-5.98-1.67s-4.25.56-5.98,1.67c-1.73,1.11-3.08,2.76-4.06,4.92-.98,2.17-1.47,4.83-1.47,7.98s.49,5.81,1.47,7.98c.98,2.17,2.33,3.81,4.06,4.93s3.72,1.67,5.98,1.67,4.25-.56,5.98-1.67,3.08-2.76,4.06-4.93c.98-2.17,1.47-4.83,1.47-7.98Z" fill="#5b5c5b"/><path d="M1080.8,49.29V7.78h15.57c3.19,0,5.87.55,8.04,1.66,2.17,1.11,3.81,2.66,4.92,4.65s1.67,4.31,1.67,6.96-.56,4.97-1.69,6.92-2.79,3.46-4.98,4.52c-2.19,1.06-4.88,1.59-8.07,1.59h-11.09v-6.24h10.07c1.86,0,3.39-.26,4.58-.78,1.19-.52,2.07-1.28,2.65-2.29.57-1.01.86-2.25.86-3.72s-.29-2.73-.87-3.78c-.58-1.05-1.47-1.84-2.66-2.39-1.19-.55-2.72-.82-4.6-.82h-6.89v35.23h-7.52ZM1102.25,30.48l10.28,18.81h-8.39l-10.09-18.81h8.21Z" fill="#5b5c5b"/><path d="M1132,49.29h-14.07V7.78h14.35c4.12,0,7.67.83,10.63,2.48s5.25,4.03,6.84,7.12c1.59,3.09,2.39,6.8,2.39,11.11s-.8,8.04-2.4,11.15c-1.6,3.11-3.91,5.49-6.91,7.15-3.01,1.66-6.62,2.49-10.83,2.49ZM1125.45,42.79h6.18c2.89,0,5.3-.53,7.24-1.59,1.93-1.06,3.38-2.65,4.36-4.76.97-2.11,1.46-4.76,1.46-7.94s-.49-5.81-1.46-7.91c-.97-2.1-2.41-3.68-4.31-4.72-1.9-1.05-4.25-1.57-7.06-1.57h-6.4v28.5Z" fill="#5b5c5b"/><path d="M1173.45,49.29V7.78h7.52v35.21h18.28v6.3h-25.8Z" fill="#5b5c5b"/><path d="M1211.08,49.29h-8.03l14.61-41.51h9.28l14.63,41.51h-8.03l-11.09-33h-.32l-11.07,33ZM1211.35,33.02h21.89v6.04h-21.89v-6.04Z" fill="#5b5c5b"/><path d="M1247.06,49.29V7.78h15.89c3,0,5.5.47,7.49,1.41,1.99.94,3.49,2.22,4.48,3.84.99,1.62,1.49,3.46,1.49,5.51,0,1.69-.33,3.13-.97,4.33s-1.52,2.17-2.61,2.91-2.32,1.28-3.67,1.6v.41c1.47.08,2.89.53,4.25,1.35,1.36.82,2.47,1.97,3.33,3.46.86,1.49,1.3,3.28,1.3,5.39s-.52,4.08-1.56,5.79c-1.04,1.71-2.61,3.06-4.7,4.04-2.09.99-4.73,1.48-7.91,1.48h-16.8ZM1254.58,25.44h7.44c1.3,0,2.47-.24,3.51-.72,1.04-.48,1.86-1.16,2.46-2.05.6-.88.9-1.94.9-3.15,0-1.61-.56-2.93-1.69-3.97-1.13-1.04-2.8-1.56-5.02-1.56h-7.6v11.45ZM1254.58,43.01h8.09c2.73,0,4.7-.52,5.91-1.57,1.21-1.05,1.81-2.4,1.81-4.04,0-1.23-.3-2.34-.91-3.33-.61-.99-1.47-1.78-2.59-2.35-1.12-.57-2.46-.86-4.01-.86h-8.29v12.16Z" fill="#5b5c5b"/><path d="M1284.58,49.29V7.78h27v6.3h-19.48v11.27h18.08v6.3h-18.08v11.33h19.64v6.3h-27.16Z" fill="#5b5c5b"/><path d="M1319.25,49.29V7.78h7.52v35.21h18.28v6.3h-25.8Z" fill="#5b5c5b"/><path d="M1374.12,19.19c-.19-1.77-.98-3.15-2.38-4.13-1.4-.99-3.21-1.48-5.44-1.48-1.57,0-2.91.24-4.03.71-1.12.47-1.98,1.11-2.57,1.93-.59.81-.9,1.74-.91,2.78,0,.87.2,1.61.6,2.25s.94,1.17,1.63,1.61c.69.44,1.45.81,2.29,1.1.84.3,1.68.55,2.53.75l3.89.97c1.57.37,3.08.86,4.53,1.48,1.45.62,2.76,1.41,3.91,2.35s2.07,2.09,2.75,3.43c.68,1.34,1.01,2.91,1.01,4.7,0,2.43-.62,4.57-1.86,6.42-1.24,1.84-3.04,3.28-5.38,4.32s-5.18,1.55-8.5,1.55-6.03-.5-8.4-1.5c-2.37-1-4.22-2.46-5.55-4.38-1.33-1.92-2.05-4.26-2.16-7.01h7.4c.11,1.45.55,2.65,1.34,3.61.78.96,1.81,1.68,3.07,2.15,1.26.47,2.68.71,4.25.71s3.07-.25,4.31-.74c1.24-.49,2.21-1.18,2.91-2.07.7-.88,1.06-1.92,1.07-3.11-.01-1.08-.33-1.98-.95-2.69-.62-.71-1.49-1.3-2.6-1.78-1.12-.48-2.42-.91-3.9-1.29l-4.72-1.22c-3.42-.88-6.12-2.21-8.1-4-1.98-1.79-2.97-4.17-2.97-7.14,0-2.45.67-4.59,2-6.42,1.33-1.84,3.14-3.27,5.44-4.29,2.3-1.02,4.9-1.53,7.8-1.53s5.53.51,7.75,1.53c2.22,1.02,3.97,2.43,5.24,4.24,1.27,1.8,1.92,3.87,1.97,6.21h-7.24Z" fill="#5b5c5b"/><path d="M146.04,609.17h-7.46c-.21-1.22-.6-2.31-1.18-3.26-.57-.95-1.28-1.76-2.13-2.42-.85-.67-1.82-1.17-2.9-1.51-1.08-.34-2.25-.51-3.5-.51-2.22,0-4.19.56-5.9,1.67-1.71,1.11-3.06,2.73-4.03,4.87-.97,2.13-1.46,4.74-1.46,7.81s.49,5.75,1.47,7.89c.98,2.13,2.32,3.74,4.03,4.83,1.71,1.08,3.67,1.62,5.87,1.62,1.22,0,2.37-.16,3.44-.49,1.07-.33,2.03-.81,2.89-1.45.86-.64,1.58-1.42,2.17-2.35.59-.93,1-1.99,1.23-3.19l7.46.04c-.28,1.94-.88,3.76-1.8,5.46-.92,1.7-2.13,3.2-3.62,4.5s-3.23,2.31-5.22,3.03c-1.99.72-4.21,1.09-6.64,1.09-3.59,0-6.79-.83-9.61-2.49-2.82-1.66-5.04-4.06-6.66-7.2-1.62-3.14-2.43-6.9-2.43-11.29s.82-8.17,2.45-11.3,3.86-5.53,6.68-7.19c2.82-1.66,6.01-2.49,9.57-2.49,2.27,0,4.39.32,6.34.96,1.95.64,3.7,1.57,5.22,2.8,1.53,1.23,2.79,2.73,3.78,4.51.99,1.78,1.64,3.8,1.94,6.07Z" fill="#1e1e1e"/><path d="M189.33,615.81c0,4.4-.82,8.17-2.46,11.3-1.64,3.13-3.88,5.53-6.7,7.19-2.83,1.66-6.03,2.49-9.6,2.49s-6.78-.83-9.6-2.5c-2.83-1.67-5.06-4.07-6.7-7.2-1.64-3.13-2.46-6.89-2.46-11.28s.82-8.17,2.46-11.3c1.64-3.13,3.88-5.53,6.7-7.19,2.82-1.66,6.03-2.49,9.6-2.49s6.78.83,9.6,2.49c2.82,1.66,5.06,4.06,6.7,7.19,1.64,3.13,2.46,6.9,2.46,11.3ZM181.89,615.81c0-3.1-.48-5.71-1.45-7.85s-2.3-3.75-4-4.85-3.66-1.65-5.88-1.65-4.18.55-5.88,1.65-3.03,2.71-4,4.85-1.45,4.75-1.45,7.85.48,5.71,1.45,7.85,2.3,3.75,4,4.85c1.7,1.1,3.66,1.64,5.88,1.64s4.18-.55,5.88-1.64c1.7-1.1,3.03-2.71,4-4.85s1.45-4.75,1.45-7.85Z" fill="#1e1e1e"/><path d="M196.35,595.4h9.05l12.12,29.59h.48l12.12-29.59h9.05v40.84h-7.1v-28.06h-.38l-11.29,27.94h-5.3l-11.29-28h-.38v28.12h-7.1v-40.84Z" fill="#1e1e1e"/><path d="M247.24,636.23v-40.84h15.31c3.14,0,5.77.58,7.91,1.75s3.75,2.78,4.85,4.82c1.1,2.04,1.65,4.36,1.65,6.95s-.55,4.95-1.66,6.98c-1.1,2.03-2.73,3.63-4.89,4.8-2.15,1.16-4.81,1.75-7.96,1.75h-10.15v-6.08h9.15c1.83,0,3.34-.32,4.51-.96,1.17-.64,2.04-1.52,2.6-2.63.56-1.12.85-2.4.85-3.85s-.28-2.73-.85-3.83-1.44-1.96-2.61-2.58c-1.18-.62-2.69-.93-4.54-.93h-6.78v34.66h-7.4Z" fill="#1e1e1e"/><path d="M319.86,615.81c0,4.4-.82,8.17-2.46,11.3-1.64,3.13-3.88,5.53-6.7,7.19-2.83,1.66-6.03,2.49-9.6,2.49s-6.78-.83-9.6-2.5c-2.83-1.67-5.06-4.07-6.7-7.2-1.64-3.13-2.46-6.89-2.46-11.28s.82-8.17,2.46-11.3c1.64-3.13,3.88-5.53,6.7-7.19,2.82-1.66,6.03-2.49,9.6-2.49s6.78.83,9.6,2.49c2.82,1.66,5.06,4.06,6.7,7.19,1.64,3.13,2.46,6.9,2.46,11.3ZM312.43,615.81c0-3.1-.48-5.71-1.45-7.85s-2.3-3.75-4-4.85-3.66-1.65-5.88-1.65-4.18.55-5.88,1.65-3.03,2.71-4,4.85-1.45,4.75-1.45,7.85.48,5.71,1.45,7.85,2.3,3.75,4,4.85c1.7,1.1,3.66,1.64,5.88,1.64s4.18-.55,5.88-1.64c1.7-1.1,3.03-2.71,4-4.85s1.45-4.75,1.45-7.85Z" fill="#1e1e1e"/><path d="M349.08,606.62c-.19-1.74-.97-3.1-2.34-4.07s-3.16-1.46-5.35-1.46c-1.54,0-2.86.23-3.97.7-1.1.47-1.95,1.1-2.53,1.89-.59.8-.88,1.71-.9,2.73,0,.85.2,1.59.59,2.21.39.62.93,1.15,1.6,1.58.68.43,1.43.79,2.25,1.09.82.29,1.66.54,2.49.74l3.83.96c1.54.36,3.03.84,4.46,1.46,1.43.61,2.71,1.38,3.85,2.31s2.04,2.05,2.7,3.37c.66,1.32,1,2.86,1,4.63,0,2.39-.61,4.5-1.83,6.31-1.22,1.81-2.99,3.23-5.29,4.25-2.31,1.02-5.09,1.53-8.37,1.53s-5.93-.49-8.27-1.48c-2.33-.98-4.15-2.42-5.46-4.31-1.31-1.89-2.02-4.19-2.12-6.9h7.28c.11,1.42.54,2.61,1.32,3.55.77.94,1.78,1.65,3.02,2.11,1.24.47,2.64.7,4.18.7s3.02-.24,4.24-.73,2.17-1.16,2.86-2.03c.69-.87,1.04-1.89,1.06-3.06-.01-1.06-.33-1.94-.94-2.64-.61-.7-1.47-1.28-2.56-1.75-1.1-.47-2.38-.89-3.84-1.27l-4.65-1.2c-3.36-.86-6.02-2.18-7.97-3.94-1.95-1.76-2.92-4.1-2.92-7.03,0-2.41.65-4.51,1.96-6.32s3.09-3.21,5.35-4.22c2.26-1,4.82-1.5,7.68-1.5s5.44.5,7.63,1.5c2.19,1,3.9,2.39,5.15,4.17,1.25,1.77,1.89,3.81,1.93,6.11h-7.12Z" fill="#1e1e1e"/><path d="M370.73,595.4v40.84h-7.4v-40.84h7.4Z" fill="#1e1e1e"/><path d="M376.97,601.6v-6.2h32.58v6.2h-12.62v34.64h-7.34v-34.64h-12.62Z" fill="#1e1e1e"/><path d="M423.21,595.4v40.84h-7.4v-40.84h7.4Z" fill="#1e1e1e"/><path d="M467.74,615.81c0,4.4-.82,8.17-2.46,11.3-1.64,3.13-3.88,5.53-6.7,7.19-2.83,1.66-6.03,2.49-9.6,2.49s-6.78-.83-9.6-2.5c-2.83-1.67-5.06-4.07-6.7-7.2-1.64-3.13-2.46-6.89-2.46-11.28s.82-8.17,2.46-11.3c1.64-3.13,3.88-5.53,6.7-7.19,2.82-1.66,6.03-2.49,9.6-2.49s6.78.83,9.6,2.49c2.82,1.66,5.06,4.06,6.7,7.19,1.64,3.13,2.46,6.9,2.46,11.3ZM460.3,615.81c0-3.1-.48-5.71-1.45-7.85s-2.3-3.75-4-4.85-3.66-1.65-5.88-1.65-4.18.55-5.88,1.65-3.03,2.71-4,4.85-1.45,4.75-1.45,7.85.48,5.71,1.45,7.85,2.3,3.75,4,4.85c1.7,1.1,3.66,1.64,5.88,1.64s4.18-.55,5.88-1.64c1.7-1.1,3.03-2.71,4-4.85s1.45-4.75,1.45-7.85Z" fill="#1e1e1e"/><path d="M508.32,595.4v40.84h-6.58l-19.24-27.82h-.34v27.82h-7.4v-40.84h6.62l19.22,27.84h.36v-27.84h7.36Z" fill="#1e1e1e"/><path d="M182.56,703.62v-40.84h15.31c3.14,0,5.77.55,7.91,1.64s3.75,2.62,4.85,4.58,1.65,4.24,1.65,6.85-.56,4.89-1.67,6.81c-1.11,1.92-2.74,3.4-4.9,4.45-2.15,1.04-4.8,1.57-7.94,1.57h-10.91v-6.14h9.91c1.83,0,3.34-.26,4.51-.77,1.17-.51,2.04-1.26,2.6-2.25s.85-2.21.85-3.66-.29-2.69-.86-3.72c-.57-1.03-1.44-1.81-2.61-2.35-1.17-.54-2.68-.81-4.53-.81h-6.78v34.66h-7.4ZM203.66,685.11l10.11,18.5h-8.26l-9.93-18.5h8.08Z" fill="#1e1e1e"/><path d="M219.09,703.62v-40.84h26.56v6.2h-19.16v11.09h17.79v6.2h-17.79v11.15h19.32v6.2h-26.72Z" fill="#1e1e1e"/><path d="M258.68,662.78l10.63,32.14h.42l10.61-32.14h8.14l-14.4,40.84h-9.13l-14.38-40.84h8.12Z" fill="#1e1e1e"/><path d="M293.85,703.62v-40.84h26.56v6.2h-19.16v11.09h17.79v6.2h-17.79v11.15h19.32v6.2h-26.72Z" fill="#1e1e1e"/><path d="M361.53,662.78v40.84h-6.58l-19.24-27.82h-.34v27.82h-7.4v-40.84h6.62l19.22,27.84h.36v-27.84h7.36Z" fill="#1e1e1e"/><path d="M395.31,662.78h7.4v26.68c0,2.92-.69,5.5-2.06,7.72-1.38,2.22-3.31,3.95-5.79,5.19-2.49,1.24-5.39,1.86-8.71,1.86s-6.25-.62-8.73-1.86-4.41-2.97-5.78-5.19c-1.37-2.22-2.05-4.79-2.05-7.72v-26.68h7.4v26.06c0,1.7.38,3.22,1.13,4.55.75,1.33,1.81,2.37,3.18,3.12,1.37.75,2.99,1.13,4.87,1.13s3.5-.38,4.88-1.13,2.44-1.79,3.18-3.12c.74-1.33,1.12-2.84,1.12-4.55v-26.06Z" fill="#1e1e1e"/><path d="M410.76,703.62v-40.84h26.56v6.2h-19.16v11.09h17.79v6.2h-17.79v11.15h19.32v6.2h-26.72Z" fill="#1e1e1e"/><path d="M906.51,606.62c-.19-1.74-.97-3.1-2.34-4.07s-3.16-1.46-5.35-1.46c-1.54,0-2.87.23-3.97.7-1.1.47-1.95,1.1-2.53,1.89s-.88,1.71-.9,2.73c0,.85.2,1.59.59,2.21.39.62.93,1.15,1.61,1.58.68.43,1.43.79,2.25,1.09s1.66.54,2.49.74l3.83.96c1.54.36,3.03.84,4.46,1.46s2.71,1.38,3.85,2.31,2.04,2.05,2.7,3.37c.66,1.32,1,2.86,1,4.63,0,2.39-.61,4.5-1.83,6.31-1.22,1.81-2.99,3.23-5.29,4.25s-5.09,1.53-8.37,1.53-5.93-.49-8.27-1.48-4.15-2.42-5.46-4.31c-1.31-1.89-2.02-4.19-2.12-6.9h7.28c.11,1.42.54,2.61,1.32,3.55.77.94,1.78,1.65,3.02,2.11,1.24.47,2.63.7,4.18.7s3.02-.24,4.24-.73c1.22-.49,2.17-1.16,2.86-2.03.69-.87,1.04-1.89,1.06-3.06-.01-1.06-.33-1.94-.94-2.64-.61-.7-1.47-1.28-2.56-1.75-1.1-.47-2.38-.89-3.84-1.27l-4.65-1.2c-3.36-.86-6.02-2.18-7.97-3.94-1.95-1.76-2.92-4.1-2.92-7.03,0-2.41.66-4.51,1.96-6.32,1.31-1.81,3.09-3.21,5.35-4.22,2.26-1,4.82-1.5,7.68-1.5s5.44.5,7.63,1.5c2.19,1,3.91,2.39,5.15,4.17,1.25,1.77,1.89,3.81,1.93,6.11h-7.12Z" fill="#1e1e1e"/><path d="M957.26,615.81c0,4.4-.82,8.17-2.46,11.3s-3.88,5.53-6.7,7.19c-2.83,1.66-6.03,2.49-9.6,2.49s-6.78-.83-9.6-2.5c-2.83-1.67-5.06-4.07-6.7-7.2-1.64-3.13-2.46-6.89-2.46-11.28s.82-8.17,2.46-11.3c1.64-3.13,3.88-5.53,6.7-7.19,2.82-1.66,6.02-2.49,9.6-2.49s6.78.83,9.6,2.49,5.06,4.06,6.7,7.19,2.46,6.9,2.46,11.3ZM949.82,615.81c0-3.1-.48-5.71-1.45-7.85s-2.3-3.75-4-4.85c-1.7-1.1-3.66-1.65-5.88-1.65s-4.18.55-5.88,1.65c-1.7,1.1-3.03,2.71-4,4.85s-1.45,4.75-1.45,7.85.48,5.71,1.45,7.85,2.3,3.75,4,4.85c1.7,1.1,3.66,1.64,5.88,1.64s4.18-.55,5.88-1.64c1.7-1.1,3.03-2.71,4-4.85s1.45-4.75,1.45-7.85Z" fill="#1e1e1e"/><path d="M990.02,595.4h7.4v26.68c0,2.92-.69,5.5-2.06,7.72-1.38,2.22-3.31,3.95-5.79,5.19-2.49,1.24-5.39,1.86-8.71,1.86s-6.25-.62-8.73-1.86c-2.49-1.24-4.41-2.97-5.78-5.19-1.37-2.22-2.05-4.79-2.05-7.72v-26.68h7.4v26.06c0,1.7.38,3.22,1.13,4.55s1.81,2.37,3.18,3.12,2.99,1.13,4.87,1.13,3.5-.38,4.88-1.13,2.44-1.79,3.18-3.12c.74-1.33,1.12-2.84,1.12-4.55v-26.06Z" fill="#1e1e1e"/><path d="M1039.03,595.4v40.84h-6.58l-19.24-27.82h-.34v27.82h-7.4v-40.84h6.62l19.22,27.84h.36v-27.84h7.36Z" fill="#1e1e1e"/><path d="M1060.91,636.23h-13.84v-40.84h14.12c4.05,0,7.54.81,10.46,2.44,2.92,1.63,5.16,3.96,6.73,7.01,1.57,3.04,2.35,6.69,2.35,10.93s-.79,7.91-2.36,10.97c-1.58,3.06-3.84,5.4-6.8,7.04-2.96,1.64-6.51,2.45-10.66,2.45ZM1054.47,629.83h6.08c2.84,0,5.22-.52,7.12-1.57,1.9-1.04,3.33-2.6,4.29-4.69.96-2.08,1.44-4.68,1.44-7.81s-.48-5.72-1.44-7.79c-.96-2.07-2.37-3.62-4.24-4.65-1.87-1.03-4.18-1.54-6.95-1.54h-6.3v28.04Z" fill="#1e1e1e"/><path d="M1101.69,636.23v-40.84h15.31c3.14,0,5.77.55,7.91,1.64s3.75,2.62,4.85,4.58,1.64,4.24,1.64,6.85-.55,4.89-1.67,6.81c-1.11,1.92-2.74,3.4-4.9,4.45-2.15,1.04-4.8,1.57-7.94,1.57h-10.91v-6.14h9.91c1.83,0,3.34-.26,4.51-.77s2.04-1.26,2.6-2.25.85-2.21.85-3.66-.29-2.69-.86-3.72c-.57-1.03-1.44-1.81-2.61-2.35-1.17-.54-2.68-.81-4.53-.81h-6.78v34.66h-7.4ZM1122.78,617.73l10.11,18.5h-8.26l-9.93-18.5h8.08Z" fill="#1e1e1e"/><path d="M1138.22,636.23v-40.84h26.56v6.2h-19.16v11.09h17.79v6.2h-17.79v11.15h19.32v6.2h-26.72Z" fill="#1e1e1e"/><path d="M1207.29,609.17h-7.46c-.21-1.22-.61-2.31-1.18-3.26-.57-.95-1.28-1.76-2.13-2.42-.85-.67-1.82-1.17-2.9-1.51-1.08-.34-2.25-.51-3.5-.51-2.22,0-4.19.56-5.9,1.67-1.71,1.11-3.06,2.73-4.03,4.87-.97,2.13-1.46,4.74-1.46,7.81s.49,5.75,1.47,7.89c.98,2.13,2.32,3.74,4.03,4.83,1.71,1.08,3.67,1.62,5.87,1.62,1.22,0,2.37-.16,3.44-.49,1.07-.33,2.03-.81,2.89-1.45.86-.64,1.58-1.42,2.17-2.35s1-1.99,1.23-3.19l7.46.04c-.28,1.94-.88,3.76-1.8,5.46-.92,1.7-2.13,3.2-3.62,4.5-1.49,1.3-3.23,2.31-5.22,3.03s-4.21,1.09-6.64,1.09c-3.59,0-6.79-.83-9.61-2.49-2.82-1.66-5.04-4.06-6.66-7.2s-2.43-6.9-2.43-11.29.82-8.17,2.45-11.3c1.64-3.13,3.86-5.53,6.68-7.19s6.01-2.49,9.57-2.49c2.27,0,4.39.32,6.34.96,1.95.64,3.7,1.57,5.22,2.8,1.53,1.23,2.79,2.73,3.78,4.51.99,1.78,1.64,3.8,1.94,6.07Z" fill="#1e1e1e"/><path d="M1250.58,615.81c0,4.4-.82,8.17-2.46,11.3s-3.88,5.53-6.7,7.19c-2.83,1.66-6.03,2.49-9.6,2.49s-6.78-.83-9.6-2.5c-2.83-1.67-5.06-4.07-6.7-7.2-1.64-3.13-2.46-6.89-2.46-11.28s.82-8.17,2.46-11.3c1.64-3.13,3.88-5.53,6.7-7.19,2.82-1.66,6.02-2.49,9.6-2.49s6.78.83,9.6,2.49,5.06,4.06,6.7,7.19,2.46,6.9,2.46,11.3ZM1243.14,615.81c0-3.1-.48-5.71-1.45-7.85s-2.3-3.75-4-4.85c-1.7-1.1-3.66-1.65-5.88-1.65s-4.18.55-5.88,1.65c-1.7,1.1-3.03,2.71-4,4.85s-1.45,4.75-1.45,7.85.48,5.71,1.45,7.85,2.3,3.75,4,4.85c1.7,1.1,3.66,1.64,5.88,1.64s4.18-.55,5.88-1.64c1.7-1.1,3.03-2.71,4-4.85s1.45-4.75,1.45-7.85Z" fill="#1e1e1e"/><path d="M1257.6,636.23v-40.84h15.31c3.14,0,5.77.55,7.91,1.64s3.75,2.62,4.85,4.58,1.64,4.24,1.64,6.85-.55,4.89-1.67,6.81c-1.11,1.92-2.74,3.4-4.9,4.45-2.15,1.04-4.8,1.57-7.94,1.57h-10.91v-6.14h9.91c1.83,0,3.34-.26,4.51-.77s2.04-1.26,2.6-2.25.85-2.21.85-3.66-.29-2.69-.86-3.72c-.57-1.03-1.44-1.81-2.61-2.35-1.17-.54-2.68-.81-4.53-.81h-6.78v34.66h-7.4ZM1278.7,617.73l10.11,18.5h-8.26l-9.93-18.5h8.08Z" fill="#1e1e1e"/><path d="M1307.97,636.23h-13.84v-40.84h14.12c4.05,0,7.54.81,10.46,2.44,2.92,1.63,5.16,3.96,6.73,7.01,1.57,3.04,2.35,6.69,2.35,10.93s-.79,7.91-2.36,10.97c-1.58,3.06-3.84,5.4-6.8,7.04-2.96,1.64-6.51,2.45-10.66,2.45ZM1301.53,629.83h6.08c2.84,0,5.22-.52,7.12-1.57,1.9-1.04,3.33-2.6,4.29-4.69.96-2.08,1.44-4.68,1.44-7.81s-.48-5.72-1.44-7.79c-.96-2.07-2.37-3.62-4.24-4.65-1.87-1.03-4.18-1.54-6.95-1.54h-6.3v28.04Z" fill="#1e1e1e"/><path d="M1342.21,595.4v40.84h-7.4v-40.84h7.4Z" fill="#1e1e1e"/><path d="M1383.8,595.4v40.84h-6.58l-19.24-27.82h-.34v27.82h-7.4v-40.84h6.62l19.22,27.84h.36v-27.84h7.36Z" fill="#1e1e1e"/><path d="M1419.2,608.44c-.33-1.08-.79-2.04-1.37-2.9-.58-.86-1.27-1.59-2.07-2.2-.8-.61-1.73-1.07-2.76-1.39-1.04-.31-2.17-.47-3.39-.47-2.19,0-4.15.55-5.86,1.66s-3.06,2.72-4.04,4.86c-.98,2.13-1.47,4.73-1.47,7.79s.49,5.7,1.46,7.84c.97,2.14,2.32,3.77,4.05,4.88,1.73,1.11,3.74,1.67,6.02,1.67,2.07,0,3.87-.4,5.39-1.2s2.7-1.93,3.52-3.4c.82-1.47,1.24-3.19,1.24-5.17l1.67.26h-11.09v-5.78h16.57v4.91c0,3.5-.75,6.52-2.23,9.07-1.49,2.55-3.54,4.52-6.14,5.89s-5.6,2.06-8.97,2.06c-3.76,0-7.06-.85-9.9-2.54-2.84-1.69-5.05-4.11-6.64-7.24s-2.38-6.85-2.38-11.16c0-3.3.47-6.24,1.41-8.83.94-2.59,2.25-4.8,3.94-6.61s3.67-3.2,5.94-4.15c2.27-.95,4.75-1.43,7.42-1.43,2.26,0,4.37.33,6.32.99s3.69,1.59,5.21,2.8c1.52,1.21,2.77,2.65,3.76,4.31.98,1.66,1.63,3.5,1.93,5.5h-7.54Z" fill="#1e1e1e"/><path d="M1028.12,703.62v-40.84h15.31c3.14,0,5.77.55,7.91,1.64s3.75,2.62,4.85,4.58,1.64,4.24,1.64,6.85-.55,4.89-1.67,6.81c-1.11,1.92-2.74,3.4-4.9,4.45-2.15,1.04-4.8,1.57-7.94,1.57h-10.91v-6.14h9.91c1.83,0,3.34-.26,4.51-.77s2.04-1.26,2.6-2.25.85-2.21.85-3.66-.29-2.69-.86-3.72c-.57-1.03-1.44-1.81-2.61-2.35-1.17-.54-2.68-.81-4.53-.81h-6.78v34.66h-7.4ZM1049.21,685.11l10.11,18.5h-8.26l-9.93-18.5h8.08Z" fill="#1e1e1e"/><path d="M1064.65,703.62v-40.84h26.56v6.2h-19.16v11.09h17.79v6.2h-17.79v11.15h19.32v6.2h-26.72Z" fill="#1e1e1e"/><path d="M1104.23,662.78l10.63,32.14h.42l10.61-32.14h8.14l-14.4,40.84h-9.13l-14.38-40.84h8.12Z" fill="#1e1e1e"/><path d="M1139.4,703.62v-40.84h26.56v6.2h-19.16v11.09h17.79v6.2h-17.79v11.15h19.32v6.2h-26.72Z" fill="#1e1e1e"/><path d="M1207.08,662.78v40.84h-6.58l-19.24-27.82h-.34v27.82h-7.4v-40.84h6.62l19.22,27.84h.36v-27.84h7.36Z" fill="#1e1e1e"/><path d="M1240.86,662.78h7.4v26.68c0,2.92-.69,5.5-2.06,7.72-1.38,2.22-3.31,3.95-5.79,5.19-2.49,1.24-5.39,1.86-8.71,1.86s-6.25-.62-8.73-1.86c-2.49-1.24-4.41-2.97-5.78-5.19-1.37-2.22-2.05-4.79-2.05-7.72v-26.68h7.4v26.06c0,1.7.38,3.22,1.13,4.55s1.81,2.37,3.18,3.12,2.99,1.13,4.87,1.13,3.5-.38,4.88-1.13,2.44-1.79,3.18-3.12c.74-1.33,1.12-2.84,1.12-4.55v-26.06Z" fill="#1e1e1e"/><path d="M1256.31,703.62v-40.84h26.56v6.2h-19.16v11.09h17.79v6.2h-17.79v11.15h19.32v6.2h-26.72Z" fill="#1e1e1e"/><polyline points="145.23 23.54 152.51 8.59 162.02 8.64 150 32.85 158.52 50.07 149.05 50.07 149.05 50.07 128.44 8.59 128.44 8.59 136.86 8.59 138.01 8.62 158.52 50.07"/><path d="M200.23,34.27c0,8.71-7.18,15.74-15.96,15.74s-15.96-7.03-16.01-15.68V8.61h8.24v25.66c0,2.04.83,3.94,2.29,5.4,1.48,1.45,3.41,2.2,5.48,2.2s3.94-.75,5.42-2.2,2.17-3.26,2.23-5.29V8.62h8.24l.06,25.65h.01Z"/><polygon points="117.49 27.61 123.76 39.85 111.39 39.85 117.49 27.61 117.49 8.61 96.99 49.99 137.96 49.99 117.49 8.61 117.49 27.61"/><path d="M49.7,8.56l20.52,41.46,8.05-16.24,7.75,16.24,20.48-41.39-56.8-.07ZM70.46,30.17l-5.91-11.16h5.97l2.7,5.58-2.78,5.58h.01ZM85.92,30.06l-5.91-11.16h-.56,11.99l-5.54,11.16h.01Z"/><path d="M208.72,8.53h16.35c9.72,0,15.75,5.51,15.75,13.86v.12c0,9.24-7.4,14.16-16.58,14.16h-8.24v13.33h-7.28s0-41.48,0-41.48ZM224.47,30.09c5.51,0,8.95-3.09,8.95-7.4v-.12c0-4.92-3.5-7.4-8.95-7.4h-8.48v14.93h8.48Z" fill="#5b5c5b"/><path d="M247.64,32.41V8.53h7.28v23.58c0,7.75,3.91,11.78,10.48,11.78s10.42-3.85,10.42-11.49V8.53h7.28v23.52c0,12.37-6.98,18.6-17.84,18.6s-17.64-6.22-17.64-18.25h.01Z" fill="#5b5c5b"/><path d="M293.13,8.53h18.6c4.8,0,8.42,1.24,10.84,3.68,1.83,1.83,2.79,4.15,2.79,6.87v.12c0,5.03-2.85,7.63-5.92,9.24,4.92,1.71,8.24,4.39,8.24,10.07v.12c0,7.4-6.1,11.37-15.34,11.37h-19.19V8.53h-.01ZM318.07,20.26c0-3.32-2.54-5.27-7.28-5.27h-10.48v11.01h9.95c4.74,0,7.81-1.83,7.81-5.63v-.12ZM320.39,37.74c0-3.56-2.79-5.57-8.53-5.57h-11.55v11.37h12.08c4.98,0,8-1.89,8-5.68,0,0,0-.12,0-.12Z" fill="#5b5c5b"/><path d="M335.91,8.53h7.28v34.83h21.79v6.63h-29.09V8.53h.01Z" fill="#5b5c5b"/><path d="M372.94,8.53h7.28v41.46h-7.28V8.53Z" fill="#5b5c5b"/><path d="M388.52,43.96l4.39-5.21c4.03,3.5,7.94,5.39,13.1,5.39,4.5,0,7.34-2.13,7.34-5.21v-.12c0-2.91-1.65-4.62-9.36-6.33-8.83-2.07-13.81-4.8-13.81-12.37v-.12c0-7.1,5.92-12.02,14.16-12.02,6.1,0,10.78,1.83,15.05,5.21l-3.91,5.51c-3.79-2.79-7.46-4.27-11.25-4.27-4.27,0-6.75,2.13-6.75,4.92v.12c0,3.2,1.89,4.62,9.89,6.51,8.71,2.24,13.27,5.21,13.27,12.14v.12c0,7.83-6.1,12.37-14.81,12.37-6.39,0-12.31-2.13-17.29-6.63h-.01Z" fill="#5b5c5b"/><path d="M429.21,8.53h7.28v17.23h19.79V8.53h7.28v41.46h-7.28v-17.47h-19.79v17.47h-7.28V8.53Z" fill="#5b5c5b"/><path d="M474.66,8.53h7.28v41.46h-7.28V8.53Z" fill="#5b5c5b"/><path d="M493.01,8.53h6.75l22.21,28.67V8.53h7.16v41.46h-6.1l-22.87-29.5v29.5h-7.16V8.53h.01Z" fill="#5b5c5b"/><path d="M537.97,29.38v-.12c0-11.61,8.83-21.44,21.38-21.44,7.16,0,11.66,2.01,15.93,5.63l-4.62,5.51c-3.2-2.73-6.39-4.39-11.61-4.39-7.57,0-13.45,6.63-13.45,14.57v.12c0,8.53,5.63,14.81,14.1,14.81,3.97,0,7.46-1.24,10.01-3.15v-7.69h-10.6v-6.39h17.64v17.41c-4.15,3.5-9.95,6.45-17.29,6.45-12.98,0-21.5-9.24-21.5-21.32h0Z" fill="#5b5c5b"/></svg>