<?xml version="1.0" encoding="UTF-8"?><svg id="Layer_1" xmlns="http://www.w3.org/2000/svg" width="92.1" height="66.07" viewBox="0 0 92.1 66.07"><path d="M73.85,49.75c0,8.19-6.65,14.82-14.84,14.82H13.27c-6.49,0-11.77-5.27-11.77-11.77,0-5.19,3.36-9.59,8.03-11.15-.54-1.34-.82-2.78-.82-4.29,0-6.63,5.39-12.03,12.03-12.03,2.08,0,4.04.54,5.73,1.46,2.92-5.45,8.65-9.17,15.26-9.17,9.55,0,17.28,7.73,17.28,17.28,8.19,0,14.84,6.65,14.84,14.84Z" fill="none" stroke="#000" stroke-linecap="round" stroke-linejoin="round" stroke-width="3"/><path d="M33.06,49.98c.7,1.62-.34,3.64-2.33,4.5-1.99.86-4.17.24-4.88-1.38-.7-1.62.34-3.64,2.33-4.5s4.17-.24,4.88,1.38Z" fill="none" stroke="#000" stroke-linecap="round" stroke-linejoin="round" stroke-width="3"/><path d="M45.6,53.47c.7,1.62-.34,3.64-2.33,4.5-1.99.86-4.17.24-4.88-1.38-.7-1.62.34-3.64,2.33-4.5s4.17-.24,4.88,1.38Z" fill="none" stroke="#000" stroke-linecap="round" stroke-linejoin="round" stroke-width="3"/><polyline points="45.82 54.42 45.82 37.17 33.28 33.68 33.28 50.93" fill="none" stroke="#000" stroke-linecap="round" stroke-linejoin="round" stroke-width="3"/><line x1="45.82" y1="41.97" x2="33.28" y2="38.49" fill="none" stroke="#000" stroke-linecap="round" stroke-linejoin="round" stroke-width="3"/><path d="M65.63,18.04c4.66,0,8.43,3.77,8.43,8.43" fill="none" stroke="#000" stroke-linecap="round" stroke-linejoin="round" stroke-width="3"/><path d="M65.63,9.65c9.29,0,16.82,7.53,16.82,16.82" fill="none" stroke="#000" stroke-linecap="round" stroke-linejoin="round" stroke-width="3"/><path d="M65.63,1.5c13.79,0,24.97,11.18,24.97,24.97" fill="none" stroke="#000" stroke-linecap="round" stroke-linejoin="round" stroke-width="3"/></svg>